<?xml version="1.0" standalone="no"?>
<!DOCTYPE svg PUBLIC "-//W3C//DTD SVG 20010904//EN"
 "http://www.w3.org/TR/2001/REC-SVG-20010904/DTD/svg10.dtd">
<svg version="1.0" xmlns="http://www.w3.org/2000/svg"
 width="500.000000pt" height="500.000000pt" viewBox="0 0 500.000000 500.000000"
 preserveAspectRatio="xMidYMid meet">
<metadata>
Created by potrace 1.14, written by Peter Selinger 2001-2017
</metadata>
<g transform="translate(0.000000,500.000000) scale(0.100000,-0.100000)"
fill="#000000" stroke="none">
<path d="M2300 4922 c-275 -20 -731 -177 -1017 -348 -28 -18 -54 -29 -57 -26
-3 3 -6 0 -6 -7 0 -7 -4 -10 -9 -6 -5 3 -12 -3 -15 -13 -4 -11 -35 -37 -69
-59 -76 -49 -342 -296 -395 -367 -12 -17 -34 -44 -47 -61 -81 -101 -116 -147
-152 -200 -44 -65 -183 -315 -187 -337 -4 -17 -33 -85 -50 -118 -7 -14 -23
-56 -36 -95 -12 -38 -29 -86 -37 -105 -8 -20 -14 -53 -13 -75 1 -50 -9 -124
-21 -150 -19 -44 -27 -172 -25 -415 1 -170 5 -262 13 -275 6 -11 12 -47 14
-80 1 -33 6 -70 11 -83 4 -13 10 -62 13 -110 4 -47 11 -89 17 -93 6 -4 12 -24
13 -46 2 -34 79 -230 96 -243 3 -3 23 -45 44 -93 72 -168 288 -472 444 -627
115 -113 190 -179 251 -218 30 -20 63 -43 73 -53 43 -39 190 -131 302 -187
223 -112 272 -130 382 -137 37 -3 69 -9 72 -14 11 -16 151 -52 289 -73 153
-23 546 -32 560 -13 4 6 27 12 52 13 66 2 110 9 160 22 25 7 71 16 102 20 32
5 73 16 90 25 18 9 69 28 113 42 156 49 368 152 475 232 19 14 40 26 47 27 7
1 33 16 58 33 25 17 48 31 51 31 8 0 161 130 247 210 81 75 227 239 227 255 0
6 14 24 31 41 17 16 42 50 55 76 13 26 44 78 68 115 95 147 191 374 256 602
18 61 33 117 34 123 2 7 6 29 10 48 4 19 8 58 10 85 2 28 7 61 10 75 10 43 16
180 8 180 -13 0 -39 -98 -57 -210 -33 -213 -88 -408 -156 -559 -33 -73 -34
-75 -16 -65 6 4 5 -1 -4 -12 -9 -10 -35 -57 -59 -104 -23 -47 -57 -105 -74
-130 -17 -25 -31 -47 -31 -50 -1 -13 -56 -90 -65 -90 -5 0 -22 -21 -37 -47
-98 -168 -489 -539 -630 -598 -20 -9 -60 -34 -88 -55 -29 -22 -55 -40 -59 -40
-5 0 -21 -9 -36 -20 -16 -11 -41 -22 -57 -24 -36 -4 -151 -53 -170 -72 -8 -8
-19 -12 -24 -9 -5 4 -9 2 -9 -4 0 -11 -56 -28 -122 -37 -24 -3 -92 -17 -153
-31 -60 -14 -118 -25 -128 -25 -9 0 -15 -3 -12 -9 7 -11 1 -11 -205 -15 -85
-1 -166 -4 -180 -5 -14 -2 -52 1 -85 6 -66 9 -78 11 -210 20 -49 3 -103 10
-119 16 -16 5 -43 9 -61 9 -18 0 -46 7 -63 15 -37 19 -125 44 -170 50 -19 2
-39 11 -46 21 -7 9 -18 14 -24 10 -7 -4 -12 -3 -12 3 0 5 -34 19 -75 32 -41
12 -75 26 -75 30 0 5 -6 9 -13 9 -8 0 -24 9 -37 20 -13 11 -28 20 -33 20 -6 0
-24 11 -41 24 -17 13 -56 36 -86 51 -30 15 -69 38 -87 51 -17 13 -35 24 -38
24 -6 0 -56 36 -100 71 -115 94 -145 121 -145 129 0 6 -6 10 -14 10 -17 0 -77
48 -73 59 1 4 -24 31 -55 60 -32 29 -58 58 -58 65 0 6 -28 44 -63 85 -34 40
-67 82 -73 93 -7 11 -26 35 -44 53 -20 21 -29 38 -25 46 5 8 4 10 -3 5 -11 -7
-30 24 -76 121 -9 17 -30 55 -47 84 -17 29 -33 66 -35 81 -4 33 -13 50 -22 44
-4 -2 -8 10 -9 26 -1 17 -8 37 -15 46 -7 9 -8 13 -2 9 8 -5 8 5 0 35 -7 26
-12 35 -15 23 -4 -25 -32 49 -34 93 -1 17 -5 32 -9 32 -5 0 -8 12 -8 26 0 14
-5 35 -11 46 -7 12 -15 47 -20 77 -5 31 -15 90 -23 131 -9 41 -18 107 -22 145
-3 39 -9 84 -14 102 -8 31 -7 64 5 218 3 44 8 149 10 233 2 85 6 156 9 160 13
13 16 -7 5 -32 -10 -20 -10 -29 -1 -36 7 -6 10 -8 8 -5 -2 3 7 37 20 76 13 38
33 116 44 172 32 159 55 228 75 221 8 -3 18 13 29 46 27 83 96 206 206 365 56
83 107 152 112 153 5 2 18 21 28 43 20 38 38 55 26 23 -8 -21 11 -8 24 16 9
16 8 18 -6 13 -15 -5 -15 -3 0 26 19 37 52 44 43 9 -6 -20 -3 -19 22 7 15 17
24 33 19 36 -6 4 6 16 26 29 20 12 48 37 62 56 15 19 30 31 35 29 4 -3 15 6
24 19 9 14 27 28 38 32 26 8 78 48 170 130 50 45 74 60 88 57 15 -4 34 7 67
39 61 59 108 92 156 112 22 9 38 15 35 13 -2 -3 -35 -28 -74 -57 -93 -69 -96
-73 -50 -57 58 21 134 58 141 69 3 5 -14 0 -37 -12 -65 -31 -17 5 55 41 32 17
64 28 72 25 8 -3 24 -1 37 3 65 26 190 61 218 61 l31 0 -23 20 c-21 17 -22 21
-9 30 8 6 30 9 48 7 17 -1 32 0 32 3 0 4 21 7 48 8 46 2 46 2 22 -13 -25 -14
-25 -15 10 -9 19 3 55 10 80 15 25 5 61 11 80 13 19 2 49 9 65 16 32 12 183
14 320 3 44 -4 122 -6 173 -5 50 0 92 -2 92 -7 0 -4 17 -7 38 -8 20 0 64 -8
97 -17 33 -8 80 -18 105 -21 80 -11 179 -53 128 -55 -7 -1 14 -11 48 -24 33
-13 79 -34 103 -46 24 -12 49 -19 57 -16 8 3 13 2 10 -2 -3 -5 7 -9 22 -9 32
0 133 -46 152 -68 16 -19 71 -50 83 -47 4 1 17 -2 27 -8 43 -23 17 2 -32 31
-29 17 -77 46 -107 64 -30 19 -58 32 -61 30 -8 -5 -120 40 -129 51 -3 5 -15
11 -26 12 -11 2 -27 10 -35 17 -48 41 -330 122 -490 140 -25 3 -58 8 -75 12
-71 15 -430 33 -525 25z"/>
<path d="M2816 4852 c-2 -4 4 -8 14 -8 10 0 16 4 14 8 -3 4 -9 8 -14 8 -5 0
-11 -4 -14 -8z"/>
<path d="M3195 4780 c27 -12 43 -12 25 0 -8 5 -22 9 -30 9 -10 0 -8 -3 5 -9z"/>
<path d="M3805 4521 c-6 -11 29 -33 38 -24 11 11 -3 22 -20 16 -11 -4 -14 -3
-9 5 4 7 5 12 2 12 -3 0 -7 -4 -11 -9z"/>
<path d="M1265 4490 c-16 -11 -25 -20 -19 -20 11 0 64 39 54 40 -3 0 -18 -9
-35 -20z"/>
<path d="M3891 4426 c32 -27 112 -75 119 -71 5 3 12 0 16 -6 4 -8 3 -9 -4 -5
-19 11 -14 -5 6 -20 26 -20 34 -17 21 9 -10 18 -6 17 20 -8 18 -16 30 -23 26
-14 -3 8 -23 26 -44 40 -22 13 -36 29 -33 34 3 6 -1 4 -10 -3 -10 -8 -19 -9
-22 -4 -6 10 -82 52 -93 52 -3 0 -4 -2 -2 -4z"/>
<path d="M4172 4213 c15 -15 31 -24 34 -20 8 8 -34 47 -50 47 -6 0 2 -12 16
-27z"/>
<path d="M4280 4115 c13 -13 26 -22 31 -20 4 3 10 -1 12 -7 3 -7 6 -8 6 -3 1
18 -26 46 -49 50 l-23 4 23 -24z m21 -2 c13 -16 12 -17 -3 -4 -10 7 -18 15
-18 17 0 8 8 3 21 -13z"/>
<path d="M4310 4053 c26 -37 36 -43 21 -14 -6 10 -7 22 -3 27 4 5 3 6 -2 2 -5
-4 -16 -2 -24 5 -9 6 -5 -3 8 -20z"/>
<path d="M4475 3834 c1 -14 8 -31 15 -37 10 -10 10 -7 1 11 -7 12 -9 27 -6 32
3 5 1 11 -4 14 -5 4 -8 -5 -6 -20z"/>
<path d="M4535 3740 c3 -5 8 -10 11 -10 2 0 4 5 4 10 0 6 -5 10 -11 10 -5 0
-7 -4 -4 -10z"/>
<path d="M4657 3564 c-3 -5 1 -15 9 -22 16 -14 18 -5 5 17 -5 7 -11 9 -14 5z"/>
<path d="M4075 3533 c-38 -8 -77 -17 -85 -20 -8 -3 -24 -8 -34 -10 -11 -2 -85
-35 -165 -73 -160 -75 -264 -109 -416 -135 -144 -24 -287 -61 -375 -98 -14 -6
-27 -11 -30 -12 -21 -5 -118 -54 -181 -91 -42 -24 -81 -44 -87 -44 -6 0 13 41
41 92 36 65 51 103 50 128 -1 37 -47 238 -58 248 -7 7 -26 -19 -20 -28 2 -4 6
-17 9 -31 2 -13 12 -57 20 -97 22 -102 21 -115 -21 -187 -35 -61 -38 -64 -55
-48 -17 15 -17 17 11 34 16 10 32 27 36 39 11 35 -21 102 -61 128 -35 23 -35
24 -18 43 30 33 -8 23 -41 -11 -16 -16 -34 -30 -40 -30 -7 0 -26 16 -44 35
-30 34 -51 44 -51 26 0 -5 7 -14 15 -21 21 -18 19 -35 -9 -53 -45 -30 -56 -48
-56 -90 l0 -41 -28 30 c-54 57 -53 56 -32 116 24 70 39 159 29 184 -6 17 -8
17 -17 -7 -6 -14 -10 -32 -9 -40 1 -8 -11 -53 -27 -101 -16 -51 -26 -97 -22
-111 3 -13 35 -53 71 -88 l66 -64 -13 -38 -13 -37 -35 24 c-137 92 -394 191
-570 220 -60 9 -134 25 -168 35 -18 5 -35 10 -37 10 -26 3 -84 24 -215 81
-202 87 -268 110 -343 115 -142 10 -240 -60 -240 -172 0 -123 137 -281 333
-385 114 -60 295 -128 385 -143 11 -2 43 -8 70 -14 100 -19 173 -25 337 -25
91 -1 165 -2 164 -4 -4 -3 -273 -62 -306 -67 -14 -2 -25 -4 -25 -5 0 -2 -21
-7 -60 -15 -134 -27 -402 -91 -465 -110 -8 -2 -57 -23 -130 -52 -133 -55 -212
-130 -225 -215 -13 -81 54 -152 166 -177 56 -12 141 -15 199 -6 76 12 162 7
245 -14 93 -24 191 -31 255 -19 25 5 56 10 70 13 92 16 254 95 340 165 97 78
197 204 234 293 8 21 20 36 25 33 5 -3 23 -34 41 -68 31 -58 33 -70 36 -178 1
-63 5 -126 8 -140 3 -14 8 -52 11 -85 2 -33 7 -71 9 -85 2 -14 7 -61 11 -105
3 -44 7 -93 9 -110 2 -16 7 -70 11 -119 4 -50 8 -98 10 -107 2 -10 6 -53 9
-96 11 -154 24 -225 43 -245 19 -18 20 -18 39 3 18 20 19 39 18 448 -2 456 -8
692 -20 729 -4 16 0 36 15 63 12 21 25 58 30 81 l7 43 31 -67 c89 -191 209
-325 381 -422 118 -67 148 -71 447 -64 44 1 109 -4 145 -12 36 -8 112 -15 170
-15 85 0 113 4 145 20 55 28 84 74 81 129 -7 128 -166 239 -511 358 -93 33
-179 61 -190 63 -35 8 -278 104 -367 145 l-63 29 49 -6 c124 -15 413 -8 507
13 13 3 35 7 49 10 63 12 231 69 300 102 41 19 125 68 185 107 232 150 331
305 275 432 -37 84 -129 114 -265 86z m189 -52 c36 -23 57 -61 58 -108 2 -63
-115 -229 -168 -238 -10 -1 -18 -8 -17 -14 2 -6 -9 -18 -25 -28 -15 -10 -29
-20 -32 -23 -8 -9 -101 -65 -161 -98 -128 -68 -322 -131 -464 -149 -111 -14
-467 -5 -495 12 -7 4 -136 21 -181 24 -28 2 -61 34 -54 53 6 15 54 35 100 42
6 1 24 7 40 13 17 6 52 17 78 23 26 7 46 14 44 16 -2 2 -59 -10 -126 -27 -67
-17 -128 -28 -136 -25 -31 11 -14 41 43 77 167 104 389 186 577 214 59 9 75
12 125 24 85 20 89 13 28 -49 -74 -73 -212 -148 -303 -163 -36 -6 -165 -36
-184 -43 -8 -2 -12 -6 -10 -9 3 -2 38 5 79 15 41 11 93 22 115 25 40 6 102 23
120 34 6 3 12 6 15 7 3 0 16 5 30 11 14 6 63 27 110 46 140 57 211 90 206 94
-4 4 -23 -4 -121 -47 -63 -27 -118 -50 -124 -50 -3 0 28 32 69 72 76 72 83 76
350 200 211 98 334 118 414 69z m-3111 -30 c34 -11 110 -40 169 -65 59 -25
109 -46 112 -46 7 0 116 -48 141 -62 11 -6 29 -12 40 -14 150 -19 275 -44 355
-71 25 -8 50 -16 55 -17 54 -11 245 -103 327 -158 45 -30 57 -43 55 -60 -2
-12 -11 -22 -19 -24 -9 -1 -69 13 -134 32 -65 18 -120 31 -122 30 -1 -2 50
-22 115 -45 149 -52 148 -51 148 -92 0 -26 -5 -35 -20 -37 -16 -3 -18 -1 -7 9
22 23 13 26 -40 12 -120 -32 -528 -37 -728 -9 -48 7 -187 46 -256 71 -126 48
-324 164 -324 191 0 8 -3 13 -7 13 -21 -3 -34 4 -71 43 -59 60 -95 132 -95
188 0 53 25 98 59 106 13 3 24 10 24 14 0 24 137 18 223 -9z m1604 -608 c-8
-7 -37 9 -31 19 3 5 12 4 20 -3 8 -6 13 -14 11 -16z m78 -68 c85 -22 275 -89
375 -132 69 -30 96 -41 145 -58 59 -22 77 -34 69 -47 -4 -6 2 -6 13 1 22 11
47 6 173 -36 166 -55 277 -109 373 -182 84 -63 109 -130 72 -187 l-18 -28 -18
22 c-9 12 -21 22 -25 22 -4 0 0 -8 10 -19 15 -16 15 -20 1 -31 -16 -13 -175
-18 -235 -7 -19 3 -73 9 -120 12 -90 6 -138 13 -151 20 -4 3 -9 0 -11 -6 -6
-18 -183 -16 -244 3 -66 21 -129 53 -157 81 -12 12 -25 23 -29 23 -5 1 -12 2
-18 3 -16 2 -144 133 -177 182 -32 47 -126 228 -137 266 -25 81 -13 92 55 45
30 -20 56 -39 59 -42 3 -3 44 -32 92 -64 48 -33 85 -63 82 -67 -4 -7 74 -119
97 -139 3 -3 22 -27 42 -54 20 -27 37 -45 37 -40 0 5 -39 58 -85 118 -47 60
-83 112 -80 114 9 9 205 -128 255 -178 8 -8 24 -22 35 -30 l20 -15 -20 24
c-11 13 -54 51 -95 85 -41 33 -76 64 -78 68 -2 5 -10 8 -18 8 -8 0 -14 4 -14
8 0 5 -10 14 -22 20 -13 6 -45 25 -73 42 -27 16 -57 33 -65 37 -8 4 -24 15
-35 26 -11 10 -36 28 -55 40 -62 37 -140 97 -140 107 0 14 6 13 115 -15z
m-437 -21 c-40 -41 -271 -157 -392 -199 -75 -25 -221 -41 -209 -22 2 4 -1 7
-7 7 -6 0 -30 9 -52 20 -23 11 -44 18 -46 15 -3 -2 16 -13 42 -24 51 -22 60
-34 21 -27 -17 3 -25 0 -25 -9 0 -7 -3 -15 -7 -18 -5 -2 -1 -2 7 0 8 3 44 7
80 9 36 3 72 7 80 10 8 2 4 -5 -10 -16 -30 -23 -20 -26 20 -5 17 9 64 29 106
45 71 27 75 28 58 8 -22 -24 -2 -16 31 13 11 10 61 39 110 65 50 26 103 56
118 66 15 11 35 17 43 14 8 -3 12 -2 9 4 -3 5 4 14 15 20 55 29 -3 -129 -95
-260 -46 -65 -182 -200 -201 -200 -8 0 -14 -4 -14 -10 0 -5 -5 -10 -11 -10 -6
0 -23 -9 -39 -20 -15 -11 -40 -24 -55 -30 l-27 -10 23 37 c32 54 61 95 81 117
10 11 16 22 13 25 -6 6 -22 -14 -75 -94 -22 -33 -46 -69 -54 -81 -18 -27 -188
-65 -296 -66 -44 -1 -120 12 -142 23 -9 5 -21 9 -25 8 -22 -4 -24 3 -8 29 l18
27 -26 -24 c-26 -24 -30 -24 -219 -25 -174 -1 -197 1 -233 19 -46 23 -85 76
-85 115 0 57 107 145 246 203 61 26 255 80 328 91 21 4 48 9 60 12 12 2 37 7
56 9 19 2 76 15 125 30 145 41 423 98 545 112 30 3 56 6 57 7 1 1 18 2 39 3
31 1 34 -1 22 -13z"/>
<path d="M3870 3354 c-36 -20 -69 -41 -75 -47 -12 -11 125 61 140 74 16 15 2
9 -65 -27z"/>
<path d="M3770 3110 c0 -5 5 -10 11 -10 5 0 7 5 4 10 -3 6 -8 10 -11 10 -2 0
-4 -4 -4 -10z"/>
<path d="M3805 3110 c-3 -6 1 -7 9 -4 18 7 21 14 7 14 -6 0 -13 -4 -16 -10z"/>
<path d="M3710 3100 c0 -5 7 -7 15 -4 8 4 15 8 15 10 0 2 -7 4 -15 4 -8 0 -15
-4 -15 -10z"/>
<path d="M3628 3093 c7 -3 16 -2 19 1 4 3 -2 6 -13 5 -11 0 -14 -3 -6 -6z"/>
<path d="M3398 3078 c-9 -5 -4 -8 15 -8 15 0 27 4 27 8 0 11 -25 11 -42 0z"/>
<path d="M3450 3078 c0 -4 4 -8 9 -8 6 0 12 4 15 8 3 5 -1 9 -9 9 -8 0 -15 -4
-15 -9z"/>
<path d="M3336 3048 c3 -4 9 -6 13 -4 4 3 24 1 44 -4 21 -4 39 -4 43 1 3 5
-10 10 -28 10 -18 1 -43 3 -55 4 -12 1 -20 -2 -17 -7z"/>
<path d="M1450 3235 c0 -4 51 -30 113 -59 130 -62 150 -70 142 -56 -10 16 4
11 24 -9 10 -10 42 -24 70 -32 28 -7 51 -17 51 -21 0 -5 -4 -6 -10 -3 -5 3
-10 1 -10 -4 0 -6 12 -11 28 -12 44 0 113 -10 174 -23 32 -7 55 -10 53 -6 -2
4 -33 13 -67 20 -35 6 -70 13 -78 15 -72 15 -191 70 -240 112 l-34 28 18 -28
c11 -15 14 -27 7 -27 -8 0 -187 82 -233 107 -5 2 -8 1 -8 -2z"/>
<path d="M1090 3101 c0 -4 11 -6 25 -3 14 2 25 6 25 8 0 2 -11 4 -25 4 -14 0
-25 -4 -25 -9z"/>
<path d="M1390 3096 c0 -2 9 -6 20 -9 11 -3 18 -1 14 4 -5 9 -34 13 -34 5z"/>
<path d="M1441 3086 c9 -9 89 -13 89 -4 0 4 -21 8 -47 8 -25 0 -44 -2 -42 -4z"/>
<path d="M1550 3079 c-11 -6 -4 -9 25 -10 43 -1 65 -4 162 -17 34 -5 68 -5 75
0 8 5 -2 8 -27 9 -22 0 -49 2 -60 3 -11 2 -49 6 -85 11 -36 4 -67 9 -70 10 -3
2 -12 0 -20 -6z"/>
<path d="M2105 3000 c3 -5 8 -10 11 -10 2 0 4 5 4 10 0 6 -5 10 -11 10 -5 0
-7 -4 -4 -10z"/>
<path d="M2809 2645 c30 -43 95 -114 82 -90 -6 11 -32 43 -57 70 -25 28 -37
37 -25 20z"/>
<path d="M3176 2488 c3 -4 14 -8 24 -8 20 0 91 -24 123 -41 11 -6 21 -8 24 -5
3 2 -12 14 -34 25 -37 20 -37 20 -8 16 52 -8 178 -33 220 -44 51 -13 59 -6 8
9 -141 40 -371 72 -357 48z"/>
<path d="M3639 2394 c35 -14 65 -23 68 -21 4 5 -109 47 -123 46 -5 0 20 -11
55 -25z"/>
<path d="M3001 2375 c0 -5 6 -21 14 -35 8 -14 14 -20 14 -15 0 6 -6 21 -14 35
-8 14 -14 21 -14 15z"/>
<path d="M3720 2364 c0 -2 14 -10 30 -19 17 -9 30 -12 30 -7 0 4 -13 13 -30
19 -16 6 -30 10 -30 7z"/>
<path d="M3795 2320 c3 -5 8 -10 11 -10 2 0 4 5 4 10 0 6 -5 10 -11 10 -5 0
-7 -4 -4 -10z"/>
<path d="M3890 2269 c0 -3 23 -29 50 -57 28 -29 50 -48 50 -44 0 4 -22 30 -50
57 -27 27 -50 47 -50 44z"/>
<path d="M2322 2660 c-18 -17 -29 -30 -24 -30 5 0 21 14 37 30 37 38 30 38
-13 0z"/>
<path d="M2252 2589 c-30 -27 -62 -62 -148 -161 -13 -16 -20 -28 -16 -28 5 0
17 12 29 28 11 15 55 64 98 110 81 86 92 101 37 51z"/>
<path d="M1650 2595 c7 -8 17 -15 22 -15 6 0 5 7 -2 15 -7 8 -17 15 -22 15 -6
0 -5 -7 2 -15z"/>
<path d="M1675 2522 c-44 -5 -51 -19 -7 -14 49 5 58 7 47 13 -6 3 -23 3 -40 1z"/>
<path d="M1609 2516 c-2 -2 -31 -7 -64 -11 -33 -4 -68 -8 -77 -9 -10 -1 -21
-6 -25 -11 -5 -4 8 -5 27 -1 19 4 61 9 93 13 31 3 57 10 57 14 0 10 -4 11 -11
5z"/>
<path d="M1989 2483 c-55 -47 -235 -233 -224 -233 2 0 62 59 133 130 72 72
129 130 127 130 -2 0 -18 -12 -36 -27z"/>
<path d="M1395 2480 c-18 -8 -17 -9 8 -9 15 -1 27 4 27 9 0 12 -8 12 -35 0z"/>
<path d="M1635 2478 c-52 -18 -156 -70 -151 -76 3 -2 11 0 18 5 7 6 46 23 86
38 40 16 75 32 78 37 3 4 4 8 2 7 -2 -1 -16 -6 -33 -11z"/>
<path d="M1308 2463 c-32 -8 -58 -19 -58 -24 0 -6 7 -6 18 -1 9 6 36 13 60 17
23 4 42 11 42 16 0 5 -1 9 -2 8 -2 -1 -29 -8 -60 -16z"/>
<path d="M1820 2470 c-8 -5 -12 -11 -10 -14 3 -2 14 2 24 10 22 15 10 19 -14
4z"/>
<path d="M1718 2413 c-32 -20 -55 -39 -53 -42 3 -2 13 3 22 11 10 9 40 28 67
42 27 14 43 26 35 26 -8 0 -40 -17 -71 -37z"/>
<path d="M1140 2403 c-64 -32 -65 -32 -59 -37 2 -2 33 12 69 30 77 40 69 45
-10 7z"/>
<path d="M1388 2364 c-38 -20 -36 -28 2 -9 17 9 30 18 30 20 0 7 -1 6 -32 -11z"/>
<path d="M1018 2323 c-24 -21 -45 -39 -47 -40 -2 -2 -2 -5 0 -7 2 -2 27 16 54
40 28 24 47 44 43 44 -5 0 -27 -17 -50 -37z"/>
<path d="M4690 3461 c0 -6 4 -13 10 -16 6 -3 7 1 4 9 -7 18 -14 21 -14 7z"/>
<path d="M331 3324 c0 -11 3 -14 6 -6 3 7 2 16 -1 19 -3 4 -6 -2 -5 -13z"/>
<path d="M790 1026 c0 -2 7 -7 16 -10 8 -3 12 -2 9 4 -6 10 -25 14 -25 6z"/>
<path d="M3255 360 c-16 -7 -17 -9 -3 -9 9 -1 20 4 23 9 7 11 7 11 -20 0z"/>
</g>
</svg>
